<svg xmlns="http://www.w3.org/2000/svg" xmlns:xlink="http://www.w3.org/1999/xlink" width="45" height="52" viewBox="0 0 45 52"><defs><path id="a" d="M1008.45 1314c-8.24 0-14.45 6.45-14.45 15 0 10.76 13.44 20.45 14.05 20.86.27.19.63.19.9 0 .57-.41 14.05-10.1 14.05-20.86-.09-8.55-6.3-15-14.55-15z"/><path id="c" d="M1017.98 1328.03c0-.24-.02-.48-.06-.71 0-.26-.07-.5-.12-.74h-9.72v.55a3.52 3.52 0 0 0 3.52 3.53h2a5.52 5.52 0 0 1-10.56-2.89 5.52 5.52 0 0 1 7.08-4.57 3.82 3.82 0 0 0 4.21-1.49c.13-.18.27-.35.42-.5a11 11 0 0 0-6.77-2.21 9.52 9.52 0 0 0-.17 19h.71a9.52 9.52 0 0 0 9.46-9.97z"/><clipPath id="b"><use fill="#fff" xlink:href="#a"/></clipPath></defs><g transform="translate(-986 -1310)"><use fill="#e8faf8" xlink:href="#a"/><use fill="#fff" fill-opacity="0" stroke="#1dd0ba" stroke-miterlimit="50" stroke-width="2" clip-path="url(&quot;#b&quot;)" xlink:href="#a"/><g><use fill="#1dd0ba" xlink:href="#c"/></g></g></svg>