<svg width="580" height="400" xmlns="http://www.w3.org/2000/svg">
 <!-- Created with Method Draw - http://github.com/duopixel/Method-Draw/ -->
 <g>
  <title>background</title>
  <rect fill="#fff" id="canvas_background" height="402" width="582" y="-1" x="-1"/>
  <g display="none" overflow="visible" y="0" x="0" height="100%" width="100%" id="canvasGrid">
   <rect fill="url(#gridpattern)" stroke-width="0" y="0" x="0" height="100%" width="100%"/>
  </g>
 </g>
 <g>
  <title>Layer 1</title>
  <path d="m73,98.5c0,0 0,0 -1,0c-1,0 -0.877815,1.007492 -1,2c-0.503777,4.092216 -2,11 -2,15c0,11 0,22 0,35c0,5 0,12 0,18c0,3 0,7 0,12c0,4 0,6 0,8c0,2 0,3 0,5c0,3 0,4 0,5c0,2 0,4 0,5c0,1 0,1 0,1c0,1 0,2 0,3c0,0 0,0 0,1c0,0 0,0 0,1c0,0 0,1 0,4c0,3 0,5 0,8c0,5 0,8 0,11c0,3 0,6 1,9c0,0 0,2 0,2c0,1 0,1 0,2c0,0 0,0 0,0c0,0 4,0 7,0c7,0 14,0 22,0c4,0 11.187256,0.391724 18,2c2.176254,0.513748 9,1 14,1c5,0 7,1 14,1c7,0 13,0 16,0c5,0 9.925797,0.497559 15,1c2.985397,0.295609 8,0 13,0c1,0 5,0 9,0c1,0 4.907791,0.496231 9,1c1.985016,0.24437 5,0 8,0c6,0 12,0 15,0c6,0 11,-1 15,-1c2,0 5,0 8,0c1,0 3.823761,-0.486252 6,-1c1.946503,-0.459503 3,0 4,0c2,0 5.053497,-0.540497 7,-1c2.176239,-0.513748 4,-1 5,-1c0,0 1,0 2,0c1,0 2,0 3,0c0,0 1,0 2,0c0,0 0,0 0,-1c0,0 0,-1 0,-2c0,0 0,-1 0,-1c0,-1 0,-1 0,-2c0,-1 0,-2 0,-2c0,-1 0,-2 0,-4c0,-2 0,-5 0,-6c0,-3 0,-6 0,-8c0,-2 0,-4 0,-6c0,-2 0,-3 0,-4c0,-1 0,-1 0,-2c0,-1 0,-2 0,-2c0,-1 0,-1 0,-1c0,0 -1,1 -1,1c-2,0 -1.823761,0.486252 -4,1c-0.973236,0.229752 -2.053497,0.540497 -4,1c-2.176239,0.513748 -3.012909,0.839813 -4,1c-3.121429,0.506546 -5,2 -7,2c-1,0 -2,0 -3,0c-1,0 -2,0 -4,0c-1,0 -2.076126,0.38269 -3,0c-1.306564,-0.541199 -2,-2 -2,-2c-1,-2 -1.770248,-3.026749 -2,-4c-0.513748,-2.176254 -2,-4 -2,-4c-1,-1 -1.458801,-2.693436 -2,-4c-0.38269,-0.923874 0,-3 0,-5c0,-1 0,-1 0,-2c0,-1 0,-2 0,-4c0,-1 0,-4 0,-5c0,-2 0,-3 0,-4c0,-1 0,-3 0,-4c0,-1 -0.38269,-3.076126 0,-4c0.541199,-1.306564 4,-2 6,-4c2,-2 2.852737,-2.173096 4,-3c1.813995,-1.307449 3,-1 4,-2c1,-1 2.026764,-0.770248 3,-1c2.176239,-0.513748 3,-1 3,-1c1,0 1,0 3,0c1,0 2,0 3,0c1,0 2,0 3,0c1,0 1,0 2,0c0,0 1,0 2,0c0,0 1,0 2,0c0,0 1,0 1,0c1,0 2,0 2,0c1,0 1,0 2,0c0,0 1,0 1,0c0,-1 0,-3 0,-6c0,-1 0,-3 0,-5c0,0 0,-2 0,-3c0,-4 0,-6 0,-8c0,-2 0,-3 0,-3c0,-1 0,-2 0,-3c0,-1 0,-3 0,-5c0,-2 0,-3 0,-6c0,-2 0,-3 0,-4c0,-3 0,-6 0,-8c0,-2 0,-3 0,-3c0,-1 0,-1 0,-2c0,-1 0,-1 0,-2c0,0 0,-1 0,-2c0,-2 0,-2 0,-3c0,-1 0,-2 -2,-2c-2,0 -3.984528,-0.080742 -9,-1c-5.983093,-1.096603 -9,-1 -11,-1c-4,0 -8,0 -11,0c-2,0 -5,0 -9,0c-2,0 -5,0 -8,0c-4,0 -6,0 -10,0c-3,0 -7,0 -8,0c-4,0 -7,0 -9,0c-4,0 -8,0 -12,0c-2,0 -6.03746,0.610916 -11,0c-4.092209,-0.503777 -7,-1 -10,-1c-5,0 -7,0 -11,0c-3,0 -7,0 -10,0c-5,0 -8,0 -11,0c-4,0 -7,0 -10,0c-2,0 -5,0 -7,0c-3,0 -4,0 -7,0c-2,0 -3,0 -7,0c-1,0 -4,0 -5,0c-2,0 -4,0 -7,0c-1,0 -3,0 -5,0c-2,0 -4,0 -5,0c-1,0 -2,0 -3,0c-2,0 -3,0 -4,0c-1,0 -1,0 -2,0c0,0 -1,0 -1,0c0,0 -1,0 -2,0c-1,0 -2,0 -3,0c0,0 -1,0 -1,0c-1,0 -1,0 -1,0c-1,0 -1,0 -2,0c0,0 -1,0 -1,0c0,0 0,0 0,0c0,1 0,1 0,2c0,1 0,1 0,2c0,0 0,1 0,1c0,1 0,2 0,3c0,0 0,1 0,2c0,0 0,1 0,1c0,1 0,1 0,1l0,1" id="svg_4" fill-opacity="0" stroke-opacity="null" stroke-width="1.5" stroke="#000" fill="none"/>
 </g>
</svg>