<svg xmlns="http://www.w3.org/2000/svg" xmlns:xlink="http://www.w3.org/1999/xlink" width="65" height="65" viewBox="0 0 65 65"><defs><path id="a" d="M1111.53 2006.73s-4.14 2.04-6.03-1.27c-2.06-3.64 1.82-5.76 1.82-5.76a4.29 4.29 0 0 0-.16-1.7c-1.14 1.11-3.91 1.72-6.14 1.7-2.33-.02-3.31-1.29-3.31-1.29a30.05 30.05 0 0 0-6.88 6.93 14.68 14.68 0 0 0-1.83 3.2c3.59.1 3.68 2.01 7.44 2.02 3.86 0 3.86-2.02 7.72-2.01 3.86 0 3.86 2.01 7.71 2.01.71 0 1.28-.07 1.77-.18 0-1.26-1.28-2.71-2.11-3.65"/><path id="b" d="M1121.01 1997.07c-.95-1.95-3.96-3.1-7.83-.79l-.18.12c1.27-.46 3.4 1.06 4.19 2.48 1.31 2.38 1.23 4.63-.14 5.63l.22-.11c5.03-2.7 4.7-5.37 3.74-7.33"/><path id="c" d="M1127 1988c.23.64 1.35.28 1.66 1.3"/><path id="d" d="M1114.23 2010.42v-.01c-.01-1.26-1.28-2.71-2.11-3.65l-.34-.41c-.29-.34-1.31-1.71-.43-2.35"/><path id="e" d="M1097.72 1999a30.87 30.87 0 0 0-6.89 6.93 14.56 14.56 0 0 0-1.82 3.2l-.01.01"/><path id="f" d="M1109.84 2001.42c-1.44.42-2.31-.96-2.23-1.48a4.24 4.24 0 0 0-.16-1.69c-.05-.23-.12-.43-.18-.62a2.15 2.15 0 0 1 .25-1.91c1.87-2.77 3.11-7.95 3.11-7.95s1.54.65 4.03.61c2.5-.03 9.37-1.35 10.34-.68.96.68 1.56 1.24 2.65 1.36.86.11 1.06-.03 1.41.02.09.01.21.03.34.07.63.21 1.83.73 2.16.62.23-.08.45-.85.2-1.42-.72-1.62-3.1-2.31-4.28-2.4a44.3 44.3 0 0 1-2.54-.24 217.4 217.4 0 0 1-6.57-1.68c-2.73-.73-8.17-1.44-10.42-.75-.54.16-1.77 1.29-2.47 1.97-2.15 2.09-5.65 5.29-7.48 13.41"/><path id="g" d="M1113.41 1996.4c-2.5 1.57-3.4 3.64-3.41 5.32 0 .78.19 1.49.51 2.02.16.29.41.55.71.78 1.29.97 3.69 1.27 6.24-.01l.22-.11c5.03-2.7 4.7-5.37 3.75-7.33-.96-1.95-3.97-3.1-7.83-.79l-.19.12"/><path id="h" d="M1113 1996.16c.05-.03.1-.06.15-.07h.01c1.27-.47 3.4 1.05 4.19 2.48 1.31 2.37 1.23 4.62-.15 5.62"/><path id="i" d="M1107.42 2000s-3.88 2.13-1.82 5.76c1.89 3.31 6.04 1.27 6.04 1.27"/><path id="j" d="M1130.82 2013.67c-1.16.59-2.01 1.34-4.22 1.34-3.59 0-3.59-2.01-7.18-2.01 0 0-2.06 0-3.74.96-.9.5-1.78 1.02-3.54 1.05h-.14"/><path id="k" d="M1111.9 2015.12h-.09c-3.52-.04-4.67-1.91-7.14-2.1a4.49 4.49 0 0 0-2.67.54"/><path id="l" d="M1087 2014.22c1.06-.56 1.94-1.22 4-1.22 3.59 0 3.59 2.01 7.19 2.01"/><path id="m" d="M1083.82 2019.9a31.6 31.6 0 1 1 0 0z"/><path id="n" d="M1093.25 2006c-.08.1-.23.36-.25.39"/><path id="o" d="M1096.8 2002s-.34.28-.86.78c-.53.5-1.23 1.2-1.94 2.04"/><path id="p" d="M1086 2020l47.96.04"/><path id="q" d="M1113 1976v2.56"/><path id="r" d="M1100.87 1984.33L1098 1983"/><path id="s" d="M1105 1977l1.5 2.57"/><path id="t" d="M1122 2009c2.96 1.05 5.04 1.98 7.35.18"/><path id="u" d="M1086 2009.79a7 7 0 0 1 3.71-.78c3.59.09 3.69 2 7.45 2.01 3.85 0 3.85-2.01 7.72-2 3.85 0 3.85 2.01 7.71 2.01.7 0 1.28-.07 1.77-.18a8.05 8.05 0 0 0 2.08-.82s1.65-1.01 3.88-.77"/><path id="v" d="M1098 1998.41s.98 1.27 3.31 1.29c2.24.02 5-.59 6.14-1.7"/></defs><g transform="translate(-1077 -1969)"><use fill="#f0f0f0" xlink:href="#a"/><use fill="#f0f0f0" xlink:href="#b"/><use fill="#fff" fill-opacity="0" stroke="#666" stroke-linecap="round" stroke-linejoin="round" stroke-miterlimit="50" stroke-width=".85" xlink:href="#c"/><use fill="#fff" fill-opacity="0" stroke="#666" stroke-linecap="round" stroke-linejoin="round" stroke-miterlimit="50" stroke-width=".85" xlink:href="#d"/><use fill="#fff" fill-opacity="0" stroke="#666" stroke-linecap="round" stroke-linejoin="round" stroke-miterlimit="50" stroke-width=".85" xlink:href="#e"/><use fill="#fff" fill-opacity="0" stroke="#666" stroke-linecap="round" stroke-linejoin="round" stroke-miterlimit="50" stroke-width=".85" xlink:href="#f"/><use fill="#fff" fill-opacity="0" stroke="#666" stroke-linecap="round" stroke-linejoin="round" stroke-miterlimit="50" stroke-width=".95" xlink:href="#g"/><use fill="#fff" fill-opacity="0" stroke="#666" stroke-linecap="round" stroke-linejoin="round" stroke-miterlimit="50" stroke-width=".95" xlink:href="#h"/><use fill="#fff" fill-opacity="0" stroke="#666" stroke-linecap="round" stroke-linejoin="round" stroke-miterlimit="50" stroke-width=".85" xlink:href="#i"/><use fill="#fff" fill-opacity="0" stroke="#666" stroke-linecap="round" stroke-linejoin="round" stroke-miterlimit="50" stroke-width=".85" xlink:href="#j"/><use fill="#fff" fill-opacity="0" stroke="#666" stroke-linecap="round" stroke-linejoin="round" stroke-miterlimit="50" stroke-width=".85" xlink:href="#k"/><g><use fill="#fff" fill-opacity="0" stroke="#666" stroke-linecap="round" stroke-linejoin="round" stroke-miterlimit="50" stroke-width=".85" xlink:href="#l"/></g><g><use fill="#fff" fill-opacity="0" stroke="#666" stroke-linecap="round" stroke-linejoin="round" stroke-miterlimit="50" stroke-width=".87" xlink:href="#m"/></g><g><use fill="#fff" fill-opacity="0" stroke="#666" stroke-linecap="round" stroke-linejoin="round" stroke-miterlimit="50" stroke-width=".85" xlink:href="#n"/></g><g><use fill="#fff" fill-opacity="0" stroke="#666" stroke-linecap="round" stroke-linejoin="round" stroke-miterlimit="50" stroke-width=".85" xlink:href="#o"/></g><g><use fill="#fff" fill-opacity="0" stroke="#666" stroke-linecap="round" stroke-linejoin="round" stroke-miterlimit="50" stroke-width=".87" xlink:href="#p"/></g><g><use fill="#fff" fill-opacity="0" stroke="#666" stroke-linecap="round" stroke-linejoin="round" stroke-miterlimit="50" stroke-width=".79" xlink:href="#q"/></g><g><use fill="#fff" fill-opacity="0" stroke="#666" stroke-linecap="round" stroke-linejoin="round" stroke-miterlimit="50" stroke-width=".79" xlink:href="#r"/></g><g><use fill="#fff" fill-opacity="0" stroke="#666" stroke-linecap="round" stroke-linejoin="round" stroke-miterlimit="50" stroke-width=".79" xlink:href="#s"/></g><g><use fill="#fff" fill-opacity="0" stroke="#666" stroke-linecap="round" stroke-linejoin="round" stroke-miterlimit="50" stroke-width=".82" xlink:href="#t"/></g><g><use fill="#fff" fill-opacity="0" stroke="#666" stroke-linecap="round" stroke-linejoin="round" stroke-miterlimit="50" stroke-width=".89" xlink:href="#u"/></g><g><use fill="#fff" fill-opacity="0" stroke="#666" stroke-linecap="round" stroke-linejoin="round" stroke-miterlimit="50" stroke-width=".85" xlink:href="#v"/></g></g></svg>